<?xml version="1.0" encoding="UTF-8"?>
<svg width="360px" height="85px" viewBox="0 0 360 85" version="1.1" xmlns="http://www.w3.org/2000/svg" xmlns:xlink="http://www.w3.org/1999/xlink">
    <title>nuxt-uikit3-module-logo</title>
    <g id="nuxt-uikit3-module-logo" stroke="none" stroke-width="1" fill="none" fill-rule="evenodd">
        <g id="Group" fill-rule="nonzero">
            <g id="NuxtUIKit" transform="translate(93.658691, 20.104492)">
                <polygon id="Path" fill="#EFEFEF" points="0 0.423828125 7.11425781 0.423828125 29.5771484 36.4492188 29.5771484 0.423828125 35.2988281 0.423828125 35.2988281 44.8955078 28.5478516 44.8955078 5.75195312 8.90039062 5.75195312 44.8955078 0 44.8955078"></polygon>
                <path d="M49.4970703,12.4726562 L49.4970703,33.9970703 C49.4970703,35.6520182 49.7594401,37.0042318 50.2841797,38.0537109 C51.2529297,39.9912109 53.0592448,40.9599609 55.703125,40.9599609 C59.4973958,40.9599609 62.0807292,39.2646484 63.453125,35.8740234 C64.1998698,34.0576172 64.5732422,31.5651042 64.5732422,28.3964844 L64.5732422,12.4726562 L70.0224609,12.4726562 L70.0224609,44.8955078 L64.8759766,44.8955078 L64.9365234,40.1123047 C64.2301432,41.3434245 63.3522135,42.3828125 62.3027344,43.2304688 C60.2239583,44.9257812 57.7011719,45.7734375 54.734375,45.7734375 C50.1126302,45.7734375 46.9641927,44.2294922 45.2890625,41.1416016 C44.3808594,39.4866536 43.9267578,37.2766927 43.9267578,34.5117188 L43.9267578,12.4726562 L49.4970703,12.4726562 Z" id="Path" fill="#EFEFEF"></path>
                <polygon id="Path" fill="#EFEFEF" points="75.4414062 12.4726562 82.4951172 12.4726562 89.9423828 23.8857422 97.4804688 12.4726562 104.110352 12.6240234 93.1816406 28.2753906 104.594727 44.8955078 97.6318359 44.8955078 89.5791016 32.7255859 81.7685547 44.8955078 74.8662109 44.8955078 86.2792969 28.2753906"></polygon>
                <path d="M110.619141,3.42089844 L116.128906,3.42089844 L116.128906,12.4726562 L121.305664,12.4726562 L121.305664,16.9228516 L116.128906,16.9228516 L116.128906,38.0839844 C116.128906,39.2141927 116.51237,39.9710286 117.279297,40.3544922 C117.703125,40.5764974 118.409505,40.6875 119.398438,40.6875 C119.660807,40.6875 119.943359,40.6824544 120.246094,40.6723633 C120.548828,40.6622721 120.902018,40.6370443 121.305664,40.5966797 L121.305664,44.8955078 C120.680013,45.0771484 120.029134,45.2083333 119.353027,45.2890625 C118.676921,45.3697917 117.945312,45.4101562 117.158203,45.4101562 C114.615234,45.4101562 112.889648,44.7592773 111.981445,43.4575195 C111.073242,42.1557617 110.619141,40.4654948 110.619141,38.3867188 L110.619141,16.9228516 L106.229492,16.9228516 L106.229492,12.4726562 L110.619141,12.4726562 L110.619141,3.42089844 Z" id="Path" fill="#EFEFEF"></path>
                <path d="M153.879883,27.7001953 L153.879883,0.272460938 L163.355469,0.272460938 L163.355469,27.7001953 C163.355469,32.4430339 162.618815,36.1363932 161.145508,38.7802734 C158.400716,43.6240234 153.163411,46.0458984 145.433594,46.0458984 C137.703776,46.0458984 132.45638,43.6240234 129.691406,38.7802734 C128.218099,36.1363932 127.481445,32.4430339 127.481445,27.7001953 L127.481445,0.272460938 L136.957031,0.272460938 L136.957031,27.7001953 C136.957031,30.7679036 137.320312,33.008138 138.046875,34.4208984 C139.177083,36.9235026 141.639323,38.1748047 145.433594,38.1748047 C149.207682,38.1748047 151.659831,36.9235026 152.790039,34.4208984 C153.516602,33.008138 153.879883,30.7679036 153.879883,27.7001953 Z" id="Path" fill="#28A5F5"></path>
                <polygon id="Path" fill="#28A5F5" points="171.529297 0.272460938 180.792969 0.272460938 180.792969 44.8955078 171.529297 44.8955078"></polygon>
                <polygon id="Path" fill="#28A5F5" points="229.018555 44.8955078 217.030273 44.8955078 203.255859 25.3994141 198.805664 29.9707031 198.805664 44.8955078 189.632812 44.8955078 189.632812 0.272460938 198.805664 0.272460938 198.805664 18.6484375 216.03125 0.272460938 228.080078 0.272460938 209.794922 18.6484375"></polygon>
                <path d="M242.429688,11.8974609 L242.429688,44.8955078 L233.680664,44.8955078 L233.680664,11.8974609 L242.429688,11.8974609 Z M242.429688,0 L242.429688,7.96191406 L233.680664,7.96191406 L233.680664,0 L242.429688,0 Z" id="Shape" fill="#28A5F5"></path>
                <path d="M265.891602,38.75 L265.891602,45.1982422 L261.804688,45.3496094 C257.727865,45.4908854 254.942708,44.7845052 253.449219,43.2304688 C252.480469,42.2415365 251.996094,40.7177734 251.996094,38.6591797 L251.996094,18.3457031 L247.394531,18.3457031 L247.394531,12.2001953 L251.996094,12.2001953 L251.996094,2.99707031 L260.533203,2.99707031 L260.533203,12.2001953 L265.891602,12.2001953 L265.891602,18.3457031 L260.533203,18.3457031 L260.533203,35.7832031 C260.533203,37.1354167 260.704753,37.9780273 261.047852,38.3110352 C261.390951,38.644043 262.44043,38.8105469 264.196289,38.8105469 C264.458659,38.8105469 264.736165,38.8055013 265.028809,38.7954102 C265.321452,38.785319 265.609049,38.7701823 265.891602,38.75 Z" id="Path" fill="#28A5F5"></path>
            </g>
            <g id="uikit-logo-copy" fill="#28A5F5">
                <polygon id="Path" points="51 8.18322981 36.8051235 0 22 9.10714286 36.4071363 17"></polygon>
                <polygon id="Path" points="57.2707143 12 42.6557143 20.7516152 59.2 30.2631012 59.2 55.2078248 36.8942857 67.6801866 14.8 55.2340273 14.8 35.896626 0 28.4289304 0 63.8284279 36.3392857 85 74 63.8284279 74 21.5376884"></polygon>
            </g>
        </g>
    </g>
</svg>